<svg xmlns="http://www.w3.org/2000/svg" width="760" height="460" viewBox="0 0 760 460" font-family="Segoe UI, Helvetica, Arial, sans-serif">
<rect width="100%" height="100%" fill="white"/>
<line x1="90" y1="396.0" x2="730" y2="396.0" stroke="#e3e3e3"/>
<text x="82.0" y="400.0" font-size="13" text-anchor="end" font-weight="normal" fill="#222">0,5</text>
<line x1="90" y1="332.1" x2="730" y2="332.1" stroke="#e3e3e3"/>
<text x="82.0" y="336.1" font-size="13" text-anchor="end" font-weight="normal" fill="#222">1</text>
<line x1="90" y1="268.2" x2="730" y2="268.2" stroke="#e3e3e3"/>
<text x="82.0" y="272.2" font-size="13" text-anchor="end" font-weight="normal" fill="#222">2</text>
<line x1="90" y1="204.3" x2="730" y2="204.3" stroke="#e3e3e3"/>
<text x="82.0" y="208.3" font-size="13" text-anchor="end" font-weight="normal" fill="#222">4</text>
<line x1="90" y1="140.5" x2="730" y2="140.5" stroke="#e3e3e3"/>
<text x="82.0" y="144.5" font-size="13" text-anchor="end" font-weight="normal" fill="#222">8</text>
<line x1="90" y1="76.6" x2="730" y2="76.6" stroke="#e3e3e3"/>
<text x="82.0" y="80.6" font-size="13" text-anchor="end" font-weight="normal" fill="#222">16</text>
<line x1="134.4" y1="396" x2="134.4" y2="56" stroke="#e3e3e3"/>
<text x="134.4" y="416.0" font-size="13" text-anchor="middle" font-weight="normal" fill="#222">1</text>
<line x1="272.2" y1="396" x2="272.2" y2="56" stroke="#e3e3e3"/>
<text x="272.2" y="416.0" font-size="13" text-anchor="middle" font-weight="normal" fill="#222">2</text>
<line x1="410.0" y1="396" x2="410.0" y2="56" stroke="#e3e3e3"/>
<text x="410.0" y="416.0" font-size="13" text-anchor="middle" font-weight="normal" fill="#222">4</text>
<line x1="547.8" y1="396" x2="547.8" y2="56" stroke="#e3e3e3"/>
<text x="547.8" y="416.0" font-size="13" text-anchor="middle" font-weight="normal" fill="#222">8</text>
<line x1="685.6" y1="396" x2="685.6" y2="56" stroke="#e3e3e3"/>
<text x="685.6" y="416.0" font-size="13" text-anchor="middle" font-weight="normal" fill="#222">16</text>
<rect x="90" y="56" width="640" height="340" fill="none" stroke="#333"/>
<text x="380.0" y="32.0" font-size="17" text-anchor="middle" font-weight="bold" fill="#222">Aceleração S(p) = Tseq / Tpar(p)</text>
<text x="410.0" y="444.0" font-size="13" text-anchor="middle" font-weight="normal" fill="#222">Threads (p)</text>
<text x="24.0" y="226.0" font-size="13" text-anchor="middle" font-weight="normal" fill="#222" transform="rotate(-90 24.0 226.0)">Aceleração S(p)</text>
<polyline points="134.4,332.1 685.6,76.6" fill="none" stroke="#9a9a9a" stroke-width="2.5" stroke-dasharray="7 5"/>
<polyline points="134.4,332.1 272.2,302.1 410.0,247.5 547.8,210.7 685.6,193.5" fill="none" stroke="#1f6fb4" stroke-width="2.5"/>
<circle cx="134.4" cy="332.1" r="4.5" fill="#1f6fb4"/>
<circle cx="272.2" cy="302.1" r="4.5" fill="#1f6fb4"/>
<text x="272.2" y="291.1" font-size="12" text-anchor="middle" font-weight="bold" fill="#1f6fb4">1,38</text>
<circle cx="410.0" cy="247.5" r="4.5" fill="#1f6fb4"/>
<text x="410.0" y="236.5" font-size="12" text-anchor="middle" font-weight="bold" fill="#1f6fb4">2,50</text>
<circle cx="547.8" cy="210.7" r="4.5" fill="#1f6fb4"/>
<text x="547.8" y="199.7" font-size="12" text-anchor="middle" font-weight="bold" fill="#1f6fb4">3,73</text>
<circle cx="685.6" cy="193.5" r="4.5" fill="#1f6fb4"/>
<text x="685.6" y="182.5" font-size="12" text-anchor="middle" font-weight="bold" fill="#1f6fb4">4,50</text>
<polyline points="134.4,332.1 272.2,331.7 410.0,297.7 547.8,280.1 685.6,271.9" fill="none" stroke="#d9822b" stroke-width="2.5"/>
<circle cx="134.4" cy="332.1" r="4.5" fill="#d9822b"/>
<circle cx="272.2" cy="331.7" r="4.5" fill="#d9822b"/>
<text x="272.2" y="320.7" font-size="12" text-anchor="middle" font-weight="bold" fill="#d9822b">1,00</text>
<circle cx="410.0" cy="297.7" r="4.5" fill="#d9822b"/>
<text x="410.0" y="286.7" font-size="12" text-anchor="middle" font-weight="bold" fill="#d9822b">1,45</text>
<circle cx="547.8" cy="280.1" r="4.5" fill="#d9822b"/>
<text x="547.8" y="269.1" font-size="12" text-anchor="middle" font-weight="bold" fill="#d9822b">1,76</text>
<circle cx="685.6" cy="271.9" r="4.5" fill="#d9822b"/>
<text x="685.6" y="260.9" font-size="12" text-anchor="middle" font-weight="bold" fill="#d9822b">1,92</text>
<rect x="102.0" y="68" width="296.2" height="76" fill="white" fill-opacity="0.92" stroke="#bbb"/>
<line x1="112.0" y1="84" x2="140.0" y2="84" stroke="#9a9a9a" stroke-width="2.5" stroke-dasharray="7 5"/>
<text x="148.0" y="88.0" font-size="13" text-anchor="start" font-weight="normal" fill="#222">Ideal S(p) = p</text>
<line x1="112.0" y1="106" x2="140.0" y2="106" stroke="#1f6fb4" stroke-width="2.5"/>
<text x="148.0" y="110.0" font-size="13" text-anchor="start" font-weight="normal" fill="#222">Paralela (versão atual)</text>
<line x1="112.0" y1="128" x2="140.0" y2="128" stroke="#d9822b" stroke-width="2.5"/>
<text x="148.0" y="132.0" font-size="13" text-anchor="start" font-weight="normal" fill="#222">Paralela v1 (antes da otimização)</text>
</svg>
